<svg width="467" height="195" viewBox="0 0 467 195"
     fill="none" xmlns="http://www.w3.org/2000/svg" role="img"
     aria-label="Gabe Laines&apos;s GitHub Stats">
  <title>Gabe Laines&apos;s GitHub Stats</title>
  <style>
    .title { font: 600 18px 'Segoe UI', Ubuntu, sans-serif; fill: #78a9ff; }
    .label { font: 600 14px 'Segoe UI', Ubuntu, 'Helvetica Neue', Helvetica, Arial, sans-serif; fill: #c6c6c6; }
    .value { font: 700 14px 'Segoe UI', Ubuntu, sans-serif; fill: #f4f4f4; }
    .small { font: 600 12px 'Segoe UI', Ubuntu, sans-serif; fill: #858585; }
    .big   { font: 800 28px 'Segoe UI', Ubuntu, sans-serif; fill: #f4f4f4; }
  </style>
  <rect x="0.5" y="0.5" width="466" height="194"
        rx="8" fill="#161616" stroke="#393939"/>
  <text x="25" y="35" class="title">Gabe Laines&apos;s GitHub Stats</text>
  <g transform="translate(25, 60)">
      <svg viewBox="0 0 16 16" width="16" height="16" y="-12" fill="#be95ff">
        <path d="M8 .25a.75.75 0 01.673.418l1.882 3.815 4.21.612a.75.75 0 01.416 1.279l-3.046 2.97.719 4.192a.75.75 0 01-1.088.791L8 12.347l-3.766 1.98a.75.75 0 01-1.088-.79l.72-4.194L.818 6.374a.75.75 0 01.416-1.28l4.21-.611L7.327.668A.75.75 0 018 .25z"/></svg>
      <text x="25" y="0" class="label">Total Stars Earned:</text>
      <text x="300" y="0" class="value">0</text>
    </g>
<g transform="translate(25, 85)">
      <svg viewBox="0 0 16 16" width="16" height="16" y="-12" fill="#be95ff">
        <path d="M10.5 7.75a2.5 2.5 0 11-5 0 2.5 2.5 0 015 0zm1.43-.75a4 4 0 00-7.86 0H1.75a.75.75 0 100 1.5h2.32a4 4 0 007.86 0h2.32a.75.75 0 100-1.5h-2.32z"/></svg>
      <text x="25" y="0" class="label">Total Commits (last year):</text>
      <text x="300" y="0" class="value">473</text>
    </g>
<g transform="translate(25, 110)">
      <svg viewBox="0 0 16 16" width="16" height="16" y="-12" fill="#be95ff">
        <path d="M7.177 3.073L9.573.677A.25.25 0 0110 .854v4.792a.25.25 0 01-.427.177L7.177 3.427a.25.25 0 010-.354zM3.75 2.5a.75.75 0 100 1.5.75.75 0 000-1.5zm-2.25.75a2.25 2.25 0 113 2.122v5.256a2.251 2.251 0 11-1.5 0V5.372A2.25 2.25 0 011.5 3.25z"/></svg>
      <text x="25" y="0" class="label">Total PRs:</text>
      <text x="300" y="0" class="value">11</text>
    </g>
<g transform="translate(25, 135)">
      <svg viewBox="0 0 16 16" width="16" height="16" y="-12" fill="#be95ff">
        <path d="M8 1.5a6.5 6.5 0 100 13 6.5 6.5 0 000-13zM0 8a8 8 0 1116 0A8 8 0 010 8zm9 3a1 1 0 11-2 0 1 1 0 012 0zm-.25-6.25a.75.75 0 00-1.5 0v3.5a.75.75 0 001.5 0v-3.5z"/></svg>
      <text x="25" y="0" class="label">Total Issues:</text>
      <text x="300" y="0" class="value">0</text>
    </g>
<g transform="translate(25, 160)">
      <svg viewBox="0 0 16 16" width="16" height="16" y="-12" fill="#be95ff">
        <path d="M2 2.5A2.5 2.5 0 014.5 0h8.75a.75.75 0 01.75.75v12.5a.75.75 0 01-.75.75h-2.5a.75.75 0 110-1.5h1.75v-2h-8a1 1 0 00-.714 1.7.75.75 0 01-1.072 1.05A2.495 2.495 0 012 11.5v-9z"/></svg>
      <text x="25" y="0" class="label">Contributed to (last year):</text>
      <text x="300" y="0" class="value">0</text>
    </g>
<g transform="translate(400, 105)">
    <circle r="40" fill="none" stroke="#78a9ff" stroke-width="6" opacity="0.2"/>
    <circle r="40" fill="none" stroke="#78a9ff" stroke-width="6"
            stroke-linecap="round" opacity="0.9"
            stroke-dasharray="251.33"
            stroke-dashoffset="247.31"
            transform="rotate(-90)"/>
    <text text-anchor="middle" dominant-baseline="central" class="big">B+</text>
  </g>
</svg>
